<mxfile host="www.draw.io" modified="2020-03-25T16:32:37.096Z" agent="Mozilla/5.0 (Macintosh; Intel Mac OS X 10_15_1) AppleWebKit/537.36 (KHTML, like Gecko) Chrome/80.0.3987.149 Safari/537.36" etag="WnHgNJ8cIQ7XWO7dPOtn" version="12.9.2" type="github" pages="2">
  <diagram id="NF23fbUoGMeVQrpFLriD" name="01 - kube">
    <mxGraphModel dx="1252" dy="616" grid="1" gridSize="10" guides="1" tooltips="1" connect="1" arrows="1" fold="1" page="1" pageScale="1" pageWidth="1920" pageHeight="1200" math="0" shadow="0">
      <root>
        <mxCell id="0" />
        <mxCell id="1" parent="0" />
        <mxCell id="4ypujVCo2vhdKT-TESnu-2" value="" style="rounded=0;whiteSpace=wrap;html=1;fillColor=#dae8fc;strokeColor=#6c8ebf;" vertex="1" parent="1">
          <mxGeometry x="480" y="230" width="740" height="270" as="geometry" />
        </mxCell>
        <mxCell id="4ypujVCo2vhdKT-TESnu-3" value="Your Computer" style="text;html=1;strokeColor=none;fillColor=none;align=center;verticalAlign=middle;whiteSpace=wrap;rounded=0;fontSize=21;fontStyle=1" vertex="1" parent="1">
          <mxGeometry x="736.25" y="200" width="237.5" height="20" as="geometry" />
        </mxCell>
        <mxCell id="4ypujVCo2vhdKT-TESnu-4" value="Docker Container" style="rounded=0;whiteSpace=wrap;html=1;fontSize=21;fontStyle=1;fillColor=#f5f5f5;strokeColor=#666666;fontColor=#333333;" vertex="1" parent="1">
          <mxGeometry x="1010" y="250" width="190" height="30" as="geometry" />
        </mxCell>
        <mxCell id="4ypujVCo2vhdKT-TESnu-5" value="" style="rounded=0;whiteSpace=wrap;html=1;fontSize=21;fontStyle=1;fillColor=#f5f5f5;strokeColor=#666666;fontColor=#333333;" vertex="1" parent="1">
          <mxGeometry x="1010" y="280" width="190" height="60" as="geometry" />
        </mxCell>
        <mxCell id="4ypujVCo2vhdKT-TESnu-6" value="Comments" style="rounded=0;whiteSpace=wrap;html=1;fontSize=16;" vertex="1" parent="1">
          <mxGeometry x="1025" y="290" width="165" height="40" as="geometry" />
        </mxCell>
        <mxCell id="4ypujVCo2vhdKT-TESnu-7" value="Docker Container" style="rounded=0;whiteSpace=wrap;html=1;fontSize=21;fontStyle=1;fillColor=#f5f5f5;strokeColor=#666666;fontColor=#333333;" vertex="1" parent="1">
          <mxGeometry x="757.5" y="250" width="190" height="30" as="geometry" />
        </mxCell>
        <mxCell id="4ypujVCo2vhdKT-TESnu-28" style="edgeStyle=orthogonalEdgeStyle;rounded=0;orthogonalLoop=1;jettySize=auto;html=1;exitX=1;exitY=0.5;exitDx=0;exitDy=0;entryX=0;entryY=0.5;entryDx=0;entryDy=0;fontSize=45;fontColor=#FF0000;" edge="1" parent="1" source="4ypujVCo2vhdKT-TESnu-8" target="4ypujVCo2vhdKT-TESnu-5">
          <mxGeometry relative="1" as="geometry" />
        </mxCell>
        <mxCell id="4ypujVCo2vhdKT-TESnu-8" value="" style="rounded=0;whiteSpace=wrap;html=1;fontSize=21;fontStyle=1;fillColor=#f5f5f5;strokeColor=#666666;fontColor=#333333;" vertex="1" parent="1">
          <mxGeometry x="757.5" y="280" width="190" height="60" as="geometry" />
        </mxCell>
        <mxCell id="4ypujVCo2vhdKT-TESnu-9" value="Posts" style="rounded=0;whiteSpace=wrap;html=1;fontSize=16;" vertex="1" parent="1">
          <mxGeometry x="772.5" y="290" width="165" height="40" as="geometry" />
        </mxCell>
        <mxCell id="4ypujVCo2vhdKT-TESnu-10" value="Docker Container" style="rounded=0;whiteSpace=wrap;html=1;fontSize=21;fontStyle=1;fillColor=#f5f5f5;strokeColor=#666666;fontColor=#333333;" vertex="1" parent="1">
          <mxGeometry x="496.25" y="250" width="190" height="30" as="geometry" />
        </mxCell>
        <mxCell id="4ypujVCo2vhdKT-TESnu-24" style="edgeStyle=orthogonalEdgeStyle;rounded=0;orthogonalLoop=1;jettySize=auto;html=1;exitX=1;exitY=0.5;exitDx=0;exitDy=0;entryX=0;entryY=0.5;entryDx=0;entryDy=0;fontSize=45;fontColor=#FF0000;" edge="1" parent="1" source="4ypujVCo2vhdKT-TESnu-11" target="4ypujVCo2vhdKT-TESnu-8">
          <mxGeometry relative="1" as="geometry" />
        </mxCell>
        <mxCell id="4ypujVCo2vhdKT-TESnu-11" value="" style="rounded=0;whiteSpace=wrap;html=1;fontSize=21;fontStyle=1;fillColor=#f5f5f5;strokeColor=#666666;fontColor=#333333;" vertex="1" parent="1">
          <mxGeometry x="496.25" y="280" width="190" height="60" as="geometry" />
        </mxCell>
        <mxCell id="4ypujVCo2vhdKT-TESnu-12" value="Event Bus" style="rounded=0;whiteSpace=wrap;html=1;fontSize=16;" vertex="1" parent="1">
          <mxGeometry x="511.25" y="290" width="165" height="40" as="geometry" />
        </mxCell>
        <mxCell id="4ypujVCo2vhdKT-TESnu-26" style="edgeStyle=orthogonalEdgeStyle;rounded=0;orthogonalLoop=1;jettySize=auto;html=1;exitX=0.5;exitY=0;exitDx=0;exitDy=0;fontSize=45;fontColor=#FF0000;" edge="1" parent="1" source="4ypujVCo2vhdKT-TESnu-13" target="4ypujVCo2vhdKT-TESnu-11">
          <mxGeometry relative="1" as="geometry" />
        </mxCell>
        <mxCell id="4ypujVCo2vhdKT-TESnu-13" value="Docker Container" style="rounded=0;whiteSpace=wrap;html=1;fontSize=21;fontStyle=1;fillColor=#f5f5f5;strokeColor=#666666;fontColor=#333333;" vertex="1" parent="1">
          <mxGeometry x="496.25" y="390" width="190" height="30" as="geometry" />
        </mxCell>
        <mxCell id="4ypujVCo2vhdKT-TESnu-25" style="edgeStyle=orthogonalEdgeStyle;rounded=0;orthogonalLoop=1;jettySize=auto;html=1;exitX=1;exitY=0.5;exitDx=0;exitDy=0;entryX=0;entryY=0.5;entryDx=0;entryDy=0;fontSize=45;fontColor=#FF0000;" edge="1" parent="1" source="4ypujVCo2vhdKT-TESnu-14" target="4ypujVCo2vhdKT-TESnu-17">
          <mxGeometry relative="1" as="geometry" />
        </mxCell>
        <mxCell id="4ypujVCo2vhdKT-TESnu-14" value="" style="rounded=0;whiteSpace=wrap;html=1;fontSize=21;fontStyle=1;fillColor=#f5f5f5;strokeColor=#666666;fontColor=#333333;" vertex="1" parent="1">
          <mxGeometry x="496.25" y="420" width="190" height="60" as="geometry" />
        </mxCell>
        <mxCell id="4ypujVCo2vhdKT-TESnu-15" value="Moderation" style="rounded=0;whiteSpace=wrap;html=1;fontSize=16;" vertex="1" parent="1">
          <mxGeometry x="511.25" y="430" width="165" height="40" as="geometry" />
        </mxCell>
        <mxCell id="4ypujVCo2vhdKT-TESnu-27" style="edgeStyle=orthogonalEdgeStyle;rounded=0;orthogonalLoop=1;jettySize=auto;html=1;exitX=0.5;exitY=0;exitDx=0;exitDy=0;entryX=0.5;entryY=1;entryDx=0;entryDy=0;fontSize=45;fontColor=#FF0000;" edge="1" parent="1" source="4ypujVCo2vhdKT-TESnu-16" target="4ypujVCo2vhdKT-TESnu-8">
          <mxGeometry relative="1" as="geometry" />
        </mxCell>
        <mxCell id="4ypujVCo2vhdKT-TESnu-16" value="Docker Container" style="rounded=0;whiteSpace=wrap;html=1;fontSize=21;fontStyle=1;fillColor=#f5f5f5;strokeColor=#666666;fontColor=#333333;" vertex="1" parent="1">
          <mxGeometry x="757.5" y="390" width="190" height="30" as="geometry" />
        </mxCell>
        <mxCell id="4ypujVCo2vhdKT-TESnu-17" value="" style="rounded=0;whiteSpace=wrap;html=1;fontSize=21;fontStyle=1;fillColor=#f5f5f5;strokeColor=#666666;fontColor=#333333;" vertex="1" parent="1">
          <mxGeometry x="757.5" y="420" width="190" height="60" as="geometry" />
        </mxCell>
        <mxCell id="4ypujVCo2vhdKT-TESnu-18" value="Query" style="rounded=0;whiteSpace=wrap;html=1;fontSize=16;" vertex="1" parent="1">
          <mxGeometry x="772.5" y="430" width="165" height="40" as="geometry" />
        </mxCell>
        <mxCell id="4ypujVCo2vhdKT-TESnu-19" value="" style="strokeWidth=1;shadow=0;dashed=0;align=center;html=1;shape=mxgraph.mockup.containers.browserWindow;rSize=0;strokeColor=#666666;strokeColor2=#008cff;strokeColor3=#c4c4c4;mainText=,;recursiveResize=0;" vertex="1" parent="1">
          <mxGeometry x="650" y="590" width="400" height="210" as="geometry" />
        </mxCell>
        <mxCell id="4ypujVCo2vhdKT-TESnu-20" value="Page 1" style="strokeWidth=1;shadow=0;dashed=0;align=center;html=1;shape=mxgraph.mockup.containers.anchor;fontSize=17;fontColor=#666666;align=left;" vertex="1" parent="4ypujVCo2vhdKT-TESnu-19">
          <mxGeometry x="60" y="12" width="110" height="26" as="geometry" />
        </mxCell>
        <mxCell id="4ypujVCo2vhdKT-TESnu-21" value="https://www.draw.io" style="strokeWidth=1;shadow=0;dashed=0;align=center;html=1;shape=mxgraph.mockup.containers.anchor;rSize=0;fontSize=17;fontColor=#666666;align=left;" vertex="1" parent="4ypujVCo2vhdKT-TESnu-19">
          <mxGeometry x="130" y="60" width="250" height="26" as="geometry" />
        </mxCell>
        <mxCell id="4ypujVCo2vhdKT-TESnu-22" value="" style="endArrow=classic;startArrow=classic;html=1;" edge="1" parent="1">
          <mxGeometry width="50" height="50" relative="1" as="geometry">
            <mxPoint x="852.0799999999999" y="590" as="sourcePoint" />
            <mxPoint x="852.0799999999999" y="500" as="targetPoint" />
          </mxGeometry>
        </mxCell>
        <mxCell id="4ypujVCo2vhdKT-TESnu-23" value="X" style="text;html=1;strokeColor=none;fillColor=none;align=center;verticalAlign=middle;whiteSpace=wrap;rounded=0;fontColor=#FF0000;fontSize=45;fontStyle=1" vertex="1" parent="1">
          <mxGeometry x="810" y="530" width="85" height="30" as="geometry" />
        </mxCell>
        <mxCell id="4ypujVCo2vhdKT-TESnu-29" value="X" style="text;html=1;strokeColor=none;fillColor=none;align=center;verticalAlign=middle;whiteSpace=wrap;rounded=0;fontColor=#FF0000;fontSize=45;fontStyle=1" vertex="1" parent="1">
          <mxGeometry x="676.25" y="420" width="85" height="60" as="geometry" />
        </mxCell>
        <mxCell id="4ypujVCo2vhdKT-TESnu-30" value="X" style="text;html=1;strokeColor=none;fillColor=none;align=center;verticalAlign=middle;whiteSpace=wrap;rounded=0;fontColor=#FF0000;fontSize=45;fontStyle=1" vertex="1" parent="1">
          <mxGeometry x="548.75" y="340" width="85" height="60" as="geometry" />
        </mxCell>
        <mxCell id="4ypujVCo2vhdKT-TESnu-31" value="X" style="text;html=1;strokeColor=none;fillColor=none;align=center;verticalAlign=middle;whiteSpace=wrap;rounded=0;fontColor=#FF0000;fontSize=45;fontStyle=1" vertex="1" parent="1">
          <mxGeometry x="676.25" y="280" width="85" height="60" as="geometry" />
        </mxCell>
        <mxCell id="4ypujVCo2vhdKT-TESnu-32" value="X" style="text;html=1;strokeColor=none;fillColor=none;align=center;verticalAlign=middle;whiteSpace=wrap;rounded=0;fontColor=#FF0000;fontSize=45;fontStyle=1" vertex="1" parent="1">
          <mxGeometry x="930" y="280" width="85" height="60" as="geometry" />
        </mxCell>
        <mxCell id="4ypujVCo2vhdKT-TESnu-33" value="X" style="text;html=1;strokeColor=none;fillColor=none;align=center;verticalAlign=middle;whiteSpace=wrap;rounded=0;fontColor=#FF0000;fontSize=45;fontStyle=1" vertex="1" parent="1">
          <mxGeometry x="810" y="340" width="85" height="60" as="geometry" />
        </mxCell>
      </root>
    </mxGraphModel>
  </diagram>
  <diagram id="XkphsDHZZhkCqNtwINjF" name="02 - kube">
    <mxGraphModel dx="858" dy="422" grid="1" gridSize="10" guides="1" tooltips="1" connect="1" arrows="1" fold="1" page="1" pageScale="1" pageWidth="1920" pageHeight="1200" math="0" shadow="0">
      <root>
        <mxCell id="xyENlrnyxkyONZvPbuHn-0" />
        <mxCell id="xyENlrnyxkyONZvPbuHn-1" parent="xyENlrnyxkyONZvPbuHn-0" />
        <mxCell id="xyENlrnyxkyONZvPbuHn-4" style="edgeStyle=orthogonalEdgeStyle;rounded=0;orthogonalLoop=1;jettySize=auto;html=1;exitX=0.5;exitY=1;exitDx=0;exitDy=0;fontSize=28;fontColor=#000000;" edge="1" parent="xyENlrnyxkyONZvPbuHn-1" source="xyENlrnyxkyONZvPbuHn-2" target="xyENlrnyxkyONZvPbuHn-3">
          <mxGeometry relative="1" as="geometry" />
        </mxCell>
        <mxCell id="xyENlrnyxkyONZvPbuHn-2" value="Kubernetes is a tool for running a bunch of different containers" style="rounded=0;whiteSpace=wrap;html=1;fontSize=28;fillColor=#dae8fc;strokeColor=#6c8ebf;" vertex="1" parent="xyENlrnyxkyONZvPbuHn-1">
          <mxGeometry x="490" y="250" width="620" height="100" as="geometry" />
        </mxCell>
        <mxCell id="xyENlrnyxkyONZvPbuHn-3" value="We give it some configuration to describe how we want our containers to run and interact with eachother" style="rounded=0;whiteSpace=wrap;html=1;fontSize=28;fillColor=#dae8fc;strokeColor=#6c8ebf;" vertex="1" parent="xyENlrnyxkyONZvPbuHn-1">
          <mxGeometry x="490" y="410" width="620" height="120" as="geometry" />
        </mxCell>
      </root>
    </mxGraphModel>
  </diagram>
</mxfile>
